<svg xmlns="http://www.w3.org/2000/svg" width="1120" height="720" viewBox="0 0 1120 720" role="img" aria-label="Map Plate 2 - Waterway Proximity Close-Up">
<style>text{font-family:Inter,Arial,sans-serif;fill:#18222f}.title{font-size:28px;font-weight:800}.sub{font-size:14px;fill:#5e6b7a}.small{font-size:12px;fill:#5e6b7a}.legend{font-size:13px}.water{fill:none;stroke:#1167b1;stroke-width:4;stroke-linecap:round;stroke-linejoin:round}.estero{fill:none;stroke:#49a2bd;stroke-width:2.2;stroke-linecap:round;stroke-linejoin:round}.mgb{fill:#f0b34a;fill-opacity:.24;stroke:#9a6a00;stroke-width:2}.floodpt{fill:#a82c23;stroke:white;stroke-width:1.5}.site{fill:#111827;stroke:white;stroke-width:3}.halo{fill:#111827;opacity:.12}</style>
<rect width="100%" height="100%" fill="#f6f8fb"/>
<path d="M0 80 H1120" stroke="#d7dde6"/>
<text x="28" y="38" class="title">Map Plate 2 - Waterway Proximity Close-Up</text>
<text x="28" y="62" class="sub">Site point and nearest MMDA river / estero line features within 2 km</text>
<circle cx="589.2" cy="386.2" r="161.6" fill="none" stroke="#778596" stroke-width="1.2" stroke-dasharray="6 6"/><text x="758.8" y="381.2" class="small">750 m radius</text>
<path d="M570.0,234.8 L566.5,232.3 L560.2,230.9 L553.7,231.6 L547.3,234.7 L543.9,235.8 L538.5,234.2 L534.5,232.0 L531.5,232.0 L528.4,235.1 L524.9,240.5 L523.7,250.9 L523.2,255.7 L522.8,261.0 L521.8,265.1 L521.1,269.8 L518.8,273.4 L515.3,278.9 L512.8,282.3 L511.0,286.1 L509.2,289.7 L507.0,301.3 L507.2,305.9 L507.3,309.1 L508.7,314.0 L510.3,318.5 L513.0,324.2 L513.3,328.8 L516.5,336.9 L518.3,343.2 L518.3,346.5 L517.9,349.9 L516.6,353.3 L515.3,355.9 L513.7,360.7 L512.6,367.6 L510.4,379.5 L508.0,388.0 L504.4,394.8 L503.0,398.3 L500.4,401.5 L498.4,403.4 L494.6,405.5 L489.8,407.2 L485.3,408.6 L476.6,409.0 L469.1,407.4 L466.0,406.2 L460.0,402.8 L456.5,399.3 L452.1,395.2 L448.4,392.2 L443.8,387.7 L439.9,384.2 L436.7,382.3 L430.4,378.4 L425.0,374.0 L422.5,372.1 L419.6,370.6 L415.7,367.8 L411.5,364.8 L408.2,362.9 L403.6,361.1 L398.7,360.3 L393.8,360.0 L386.9,359.8 L377.7,359.3 L375.0,358.8 L372.3,358.1 L366.8,357.3 L360.9,358.2 L358.5,358.7 L353.6,360.1 L349.8,361.3 L346.0,362.3 L341.1,363.6 L339.0,364.9 L336.0,368.0 L335.1,372.5 L336.1,374.4 L339.7,380.5 L342.4,384.3 L346.3,389.6 L347.0,390.6 L347.9,391.8 L349.8,393.6 L353.0,396.6 L353.9,397.7 L355.9,400.4 L358.6,404.1 L359.6,405.0 L361.1,406.2 L363.5,408.3 L365.5,410.2 L368.2,412.9 L372.1,417.0 L376.0,420.4 L382.1,424.7 L390.4,430.2 L396.1,434.1 L398.5,435.7 L399.6,436.0 L400.5,436.2 L406.2,437.8 L410.1,438.9 L414.3,440.3 L416.2,441.0 L421.0,441.8 L429.0,443.1 L437.1,444.5 L443.7,444.3 L452.2,444.0 L459.3,443.7 L464.5,443.7 L469.2,444.0 L475.2,444.2 L480.5,444.4 L490.6,445.4 L493.4,445.5 L503.3,445.4 L510.8,445.5 L515.5,445.1 L518.5,444.7 L521.0,443.8 L525.0,442.4 L529.1,440.9 L533.8,440.8 L536.1,440.6 L540.4,439.6 L544.5,438.5 L547.1,437.7 L550.1,436.9 L554.9,435.0 L559.4,433.1 L561.3,432.3 L564.7,430.6 L566.5,429.5 L570.1,426.7 L573.4,424.1 L576.0,422.0 L579.4,417.4 L583.1,412.3 L586.7,407.0 L589.5,403.2 L591.8,400.0 L593.4,397.8 L593.9,397.9 L596.5,394.0 L599.9,389.3 L600.9,387.8 L601.1,387.3 L600.9,386.8 L601.0,386.3 L603.5,381.4 L605.9,376.8 L609.0,370.9 L611.8,365.5 L615.1,358.8 L617.9,353.4 L619.3,350.5 L624.3,347.3 L628.2,344.8 L631.0,342.9 L634.9,339.8 L636.3,338.2 L638.3,335.6 L639.2,334.5 L642.5,331.9 L642.1,329.2 L641.3,326.9 L639.5,324.1 L635.8,321.6 L631.9,319.9 L630.1,319.6 L627.4,319.0 L623.9,318.2 L622.7,316.5 L621.5,312.5 L620.7,308.6 L621.0,305.1 L620.5,303.4 L618.9,302.3 L617.2,302.1 L615.6,302.3 L612.3,303.4 L609.8,304.1 L607.2,303.1 L605.7,299.9 L604.9,297.1 L604.0,293.0 L604.6,289.6 L605.0,287.1 L607.0,283.1 L609.5,279.7 L611.8,275.9 L613.5,273.1 L615.1,270.5 L619.4,267.5 L622.8,265.3 L625.0,262.6 L625.0,259.7 L623.5,256.7 L619.7,252.1 L615.5,248.7 L611.1,246.6 L608.0,245.5 L602.9,244.4 L597.9,244.3 L594.6,242.8 L591.3,242.3 L587.5,242.5 L582.5,242.1 L579.7,240.4 L575.2,236.7 L570.0,234.8 Z" class="mgb"/>
<path d="M334.4,366.8 L334.2,367.4 L335.6,370.3 L341.1,379.8 L349.5,391.4 L355.1,396.7 L360.4,403.9 L367.5,410.3 L377.7,420.0 L391.5,429.7 L399.1,434.8 L402.8,435.9 L411.1,438.3 L412.9,439.7 L416.3,440.7 L418.8,440.7 L437.6,443.8 L449.8,443.8 L465.2,443.0 L468.8,444.0 L474.5,443.7 L480.5,443.9 L491.5,445.0 L504.8,445.1 L510.0,445.0 L510.5,445.3 L511.0,445.6 L511.5,445.8 L512.3,445.7 L513.3,445.4 L514.4,445.2 L518.7,444.8 L523.1,443.3 L526.0,442.3 L528.7,442.2 L536.0,440.6 L542.7,439.8 L545.8,439.2 L547.2,438.4 L548.7,437.4 L552.2,436.2 L555.7,434.8 L562.3,432.0 L564.8,430.7 L567.7,429.0 L569.9,427.3 L572.9,424.9 L576.4,422.1 L577.9,420.3 L580.6,416.9 L582.1,414.8 L583.7,412.6 L587.0,407.8 L590.2,403.4 L593.8,398.4 L596.3,395.4 L600.0,390.4 L601.9,388.0 L602.1,387.5 L602.1,386.9 L602.0,386.4 L602.1,386.0 L603.8,382.5 L606.0,378.3 L608.5,373.5 L610.6,369.3 L617.0,357.1 L618.2,354.7 L618.5,354.5 L618.8,354.5 L619.2,354.6 L619.4,354.6 L619.7,354.6 L620.0,354.5 L625.0,349.3 L626.0,348.2 L626.0,347.9 L625.9,347.6 L625.7,347.3 L625.7,347.0 L626.3,346.4 L628.5,345.1 L628.7,345.0 L628.9,344.8 L629.1,344.7 L629.3,344.6 L629.4,344.5 L629.6,344.3 L629.8,344.2 L630.0,344.1 L630.2,344.0 L630.3,343.9 L630.5,343.7 L630.7,343.6 L630.9,343.5 L631.1,343.4 L631.2,343.3 L631.4,343.1 L631.6,343.0 L631.8,342.9 L632.0,342.8 L632.2,342.6 L632.3,342.5 L632.5,342.4 L632.7,342.3 L632.9,342.2 L633.1,342.0 L633.2,341.9 L633.4,341.8 L633.6,341.7 L633.8,341.6 L636.5,339.1 L639.3,335.4 L640.2,334.5 L641.5,333.5 L645.2,330.7 L648.7,327.9 L650.0,326.6" class="water"/>
<path d="M785.8,345.7 L784.3,345.3 L783.5,345.7 L781.4,346.5 L780.7,346.7 L779.8,346.7 L778.8,346.6 L778.2,346.6 L777.7,346.8 L776.3,348.0 L774.8,348.9 L774.5,349.0 L774.3,349.0 L773.4,348.6 L772.8,348.4 L772.3,348.4 L770.9,348.8 L764.5,352.0 L762.0,353.0 L761.6,353.0 L760.6,352.8 L759.1,352.3 L757.6,352.4 L753.3,350.9 L752.8,350.8 L752.0,349.9 L750.1,348.1 L748.1,346.1 L744.1,343.1 L739.6,339.4 L738.5,338.7 L734.7,337.2 L731.1,336.6 L723.5,336.2 L719.6,335.7 L712.7,335.2 L706.0,334.7 L701.3,334.4 L696.8,334.4 L688.9,334.9 L684.5,335.3 L681.6,335.8 L679.6,336.7 L676.9,338.7 L673.0,341.7 L668.6,345.8 L664.2,349.6 L658.6,353.9 L654.8,356.9 L654.2,357.7 L653.9,358.4 L653.9,359.0 L654.3,360.3 L654.2,360.5 L654.1,360.7 L653.8,361.2 L650.0,364.5 L648.9,365.1 L648.4,365.1 L647.9,365.0 L647.0,365.1 L646.7,365.4 L646.4,365.5 L646.0,365.6 L645.5,365.4 L645.1,365.1 L644.7,364.6 L644.4,364.5 L644.0,364.6 L642.7,365.7 L642.3,366.0 L642.2,366.3 L642.2,366.9 L642.3,367.2 L642.3,368.5 L642.1,369.2 L641.9,370.0 L640.2,371.5 L637.6,373.9 L635.6,375.6 L633.5,377.5 L630.8,380.7 L630.2,382.4 L629.8,384.3 L628.5,386.8 L626.8,390.6 L624.7,394.9 L622.5,399.5 L620.5,403.7 L618.4,408.0 L617.0,410.1 L616.2,411.6 L613.6,415.7 L611.2,419.2 L609.8,421.1 L607.8,423.6 L605.2,426.1 L601.4,429.4 L600.0,431.0 L598.6,432.8 L598.3,434.0 L598.1,435.6 L597.8,437.4 L597.4,438.0 L596.6,438.8 L590.9,443.3 L583.3,449.0 L577.4,452.8 L574.5,455.1 L570.8,458.0 L567.0,461.5 L563.6,464.6" class="water"/>
<path d="M634.6,270.0 L634.6,269.7 L634.6,268.3 L634.6,266.0 L634.5,265.7 L633.9,263.6 L633.1,261.6 L633.0,261.2 L632.8,260.8 L632.5,260.2 L630.9,258.4 L628.1,255.1 L627.8,254.7 L627.4,253.9 L627.0,252.5 L626.6,251.8 L625.7,250.2 L624.8,248.5 L624.2,247.2 L623.6,245.7 L623.1,244.7 L622.7,243.9 L621.9,242.7 L621.3,242.0 L618.9,239.5 L617.9,238.7 L617.4,238.5 L617.4,238.4 L616.7,238.3 L615.7,238.1 L614.3,238.0 L613.5,237.9 L612.6,237.9 L611.7,237.9 L611.1,238.0 L609.9,238.2 L608.9,238.5 L608.3,238.7 L607.6,238.8 L606.6,239.0 L605.4,239.0 L604.0,239.0 L602.1,238.9 L600.2,238.8 L598.5,238.5 L596.7,238.1 L595.5,237.7 L594.5,237.3 L594.2,237.1 L593.9,236.9 L593.2,236.6 L592.0,236.4 L587.9,235.9 L586.5,235.7 L586.5,235.4 L586.5,235.3 L586.4,235.3 L586.2,235.2 L585.7,235.1 L585.4,234.9 L584.9,234.7 L584.4,234.4 L583.5,233.6 L582.2,232.0 L580.2,229.2 L578.5,226.1 L577.5,224.7 L577.1,224.3 L576.8,223.9 L575.8,223.3 L574.5,222.8 L573.4,222.6 L573.0,222.6 L572.6,222.6 L572.0,222.6 L571.7,222.6 L570.8,222.7 L570.4,222.8 L569.8,222.9 L568.9,223.2 L567.4,223.7 L566.5,224.3 L564.7,225.2 L562.6,226.8 L561.9,227.3 L561.0,227.7 L559.9,228.1 L558.3,228.4 L555.0,229.0 L551.9,229.6 L551.4,229.7 L550.7,229.9 L549.7,230.0 L548.8,230.0 L547.1,229.8 L546.1,229.5 L545.3,229.2 L544.0,228.4 L542.6,227.6 L541.0,226.8 L540.1,226.2 L539.3,225.5 L537.2,224.4 L536.4,224.3 L533.7,224.3 L533.4,224.3 L532.6,224.4 L531.5,224.9 L530.8,225.3 L529.9,225.9 L526.9,229.5 L526.4,230.1 L526.2,230.4 L525.4,232.0 L524.9,232.8 L524.3,234.3 L523.8,235.9 L523.2,237.7 L521.3,244.2 L521.3,244.3 L520.8,246.1 L519.8,251.1 L517.6,259.2 L516.8,262.3 L516.7,262.8 L516.6,263.2 L516.5,264.0 L516.5,264.8 L516.5,265.6 L516.7,266.9 L516.9,268.3 L516.9,270.2 L516.9,272.3 L516.6,275.5 L516.4,276.5 L516.2,277.1 L515.1,277.8 L513.3,278.5 L512.4,280.0 L511.2,281.8 L509.3,285.6 L508.0,287.7 L507.0,289.4 L505.9,291.6 L505.1,293.7 L504.4,296.0 L504.5,297.1 L504.8,298.0 L504.9,300.9 L504.9,302.4 L504.9,304.3 L504.8,309.1 L504.8,311.4 L505.6,315.8 L506.2,318.8 L507.4,320.8 L508.0,322.6 L508.0,324.0 L508.7,325.9 L509.9,327.1 L510.8,328.5 L512.1,330.5 L512.6,331.5 L512.9,333.5 L513.1,337.6 L513.7,341.8 L514.2,345.4 L514.6,347.6 L514.9,349.4 L515.1,351.7 L514.8,353.0 L513.4,355.3 L512.8,356.8 L511.9,360.2 L511.7,361.9 L511.0,364.1 L510.0,367.6 L508.5,372.0 L506.9,376.2 L505.8,380.6 L504.3,384.7 L503.6,386.2 L503.6,387.5 L503.9,389.1 L503.8,390.4 L503.2,391.6 L501.9,393.7 L501.0,395.2 L499.4,397.6 L497.7,399.3 L495.5,400.6 L492.4,401.8 L484.3,403.2 L483.0,403.2 L479.7,403.4 L474.9,403.1 L466.1,397.7 L462.9,394.8 L457.8,389.7 L450.2,383.4 L448.6,382.3 L446.7,378.7 L445.6,377.9 L442.3,375.9 L426.5,364.5 L420.2,360.6 L415.6,358.9 L400.5,354.5 L398.0,354.0 L396.0,354.8 L390.0,357.0 L387.8,357.0 L376.9,355.0 L366.8,352.2 L365.1,352.2 L363.2,352.2 L362.4,352.0 L360.6,351.7 L354.5,354.2 L353.6,355.3 L352.2,356.7 L351.2,357.1 L342.4,363.3 L334.4,366.8" class="estero"/>
<path d="M637.8,272.7 L637.7,272.7 L637.5,272.3 L637.3,271.8 L637.2,271.2 L637.2,269.9 L637.0,267.4 L637.0,267.2 L637.0,267.1 L636.7,265.2 L636.7,265.2 L636.1,263.0 L635.9,262.5 L634.8,259.8 L634.6,259.4 L633.8,258.5 L632.3,256.7 L629.4,253.5 L629.4,253.4 L628.8,251.7 L628.3,250.8 L627.4,249.3 L626.6,247.6 L626.0,246.4 L625.3,244.9 L624.8,243.8 L624.3,242.9 L623.5,241.6 L622.8,240.7 L620.2,238.1 L619.0,237.1 L618.3,236.7 L618.0,236.6 L617.1,236.4 L616.0,236.2 L614.5,236.0 L613.6,236.0 L612.5,236.0 L611.6,236.0 L610.8,236.0 L609.4,236.3 L608.5,236.6 L607.8,236.8 L607.3,236.9 L606.4,237.0 L605.4,237.1 L604.0,237.1 L602.2,237.0 L600.4,236.9 L598.8,236.6 L597.2,236.2 L596.2,235.9 L595.3,235.5 L594.5,235.2 L593.6,234.9 L591.8,234.7 L588.2,234.5 L587.1,234.4 L586.4,234.2 L586.0,234.0 L585.7,233.9 L584.9,233.5 L584.3,233.0 L583.8,232.3 L583.2,231.6 L582.3,230.6 L581.2,229.2 L580.6,228.3 L579.7,226.9 L578.9,225.5 L578.3,224.6 L577.7,223.9 L576.9,223.2 L576.0,222.7 L574.9,222.2 L573.9,222.0 L572.8,221.9 L571.7,221.9 L570.5,222.1 L569.1,222.3 L568.1,222.7 L566.7,223.3 L565.6,223.9 L563.5,225.2 L561.6,226.2 L560.1,226.7 L558.2,227.2 L554.5,227.8 L550.1,228.5 L549.1,228.6 L548.3,228.5 L547.3,228.3 L546.6,228.1 L546.1,227.9 L545.0,227.4 L543.7,226.6 L541.6,225.5 L540.9,225.0 L539.0,223.5 L538.4,223.2 L537.9,223.0 L536.5,222.8 L534.8,222.7 L533.7,222.7 L533.3,222.7" class="estero"/>
<path d="M394.6,350.5 L396.4,351.6 L402.1,352.9 L407.7,354.2 L418.8,356.9 L422.0,357.4 L425.9,359.0 L429.2,361.2 L433.5,364.2 L443.6,373.0 L446.8,375.3 L448.0,376.3 L450.7,378.6 L453.4,380.3 L462.5,389.5 L465.4,392.6 L467.7,395.2 L470.7,397.8 L475.0,399.7 L478.7,400.8 L482.6,401.4 L483.0,401.5 L484.3,401.4 L488.3,401.0 L492.7,400.1 L496.0,398.9 L497.6,397.9 L499.0,395.9 L501.0,392.1 L501.9,389.4 L502.7,386.3 L504.3,382.9 L505.0,379.2 L506.5,374.3 L508.2,369.5 L509.2,366.2 L510.4,361.6 L510.4,359.4 L510.9,355.9 L511.9,351.7 L511.8,347.5 L511.5,342.6 L511.2,337.9 L511.1,333.8 L510.8,331.4 L510.4,330.1 L508.8,328.1 L508.0,326.7 L507.6,326.0 L506.0,324.1 L504.6,320.0 L504.5,319.8 L504.5,319.5 L504.4,319.3 L504.3,319.1 L504.3,318.8 L504.2,318.6 L504.2,318.3 L504.1,318.1 L504.0,317.8 L504.0,317.6 L503.9,317.3 L503.9,317.1 L503.8,316.9 L503.7,316.6 L503.7,316.4 L503.6,316.1 L503.6,315.9 L503.5,315.6 L503.4,315.4 L503.4,315.2 L503.3,314.9 L503.3,314.7 L503.2,314.4 L503.1,314.2 L503.1,313.9 L503.0,313.7 L503.0,313.4 L502.9,313.2 L502.8,313.0 L502.3,311.1 L501.7,308.7 L501.5,307.4 L501.7,304.9 L502.3,304.4 L503.0,300.5 L503.5,297.7 L504.0,295.5 L504.2,293.8 L505.7,289.5 L507.7,285.8 L508.7,284.2 L510.2,280.8 L511.8,277.1 L512.4,275.4 L512.6,274.6 L513.2,272.8 L513.4,272.0 L513.5,270.7 L513.6,268.3 L513.6,264.9 L513.9,263.6 L514.1,262.5 L514.6,260.6 L516.2,254.7 L517.4,250.3 L517.9,248.0 L518.3,246.0 L519.1,242.7 L519.2,242.4 L521.1,235.9 L521.7,234.6 L522.4,233.2 L523.3,231.6 L524.2,230.4" class="estero"/>
<path d="M563.6,464.6 L563.4,465.3 L563.3,467.1 L563.5,467.7 L564.0,468.6 L565.0,469.4 L565.7,469.9 L568.8,470.9 L573.3,472.1 L578.6,473.3 L581.2,474.1 L585.6,474.7 L590.6,475.8 L591.7,476.1 L592.3,476.5" class="estero"/>
<path d="M592.3,476.5 L594.4,476.8 L594.7,476.9 L595.3,476.9 L595.8,476.6 L596.3,476.1 L596.6,475.9 L597.6,475.3 L598.3,474.5 L599.6,473.4 L600.6,472.0 L601.1,471.4 L603.2,469.8 L605.5,468.8 L605.7,468.1 L606.1,467.6 L607.2,467.2 L607.5,467.3 L608.3,467.5 L609.6,467.4 L613.5,467.4 L614.3,468.1 L615.3,468.9 L616.8,470.1 L621.3,474.2 L621.9,474.9 L622.5,476.2 L623.6,477.5 L624.1,478.0 L625.4,479.1 L626.8,480.0 L627.8,480.5 L628.3,480.7 L628.9,480.5 L631.5,479.2 L634.2,478.1 L636.0,477.6 L637.6,477.2 L640.5,476.6" class="estero"/>
<path d="M640.9,477.7 L638.5,478.3 L634.1,479.6 L631.9,480.7 L629.6,481.4 L627.6,481.5 L625.8,481.7 L624.9,481.3 L622.3,479.6 L621.7,479.1 L620.4,477.9 L617.4,475.1 L615.8,473.7 L613.9,472.5 L612.6,471.2 L611.6,470.5 L610.8,470.2 L610.0,469.1 L608.0,468.6 L606.5,468.9 L605.6,469.2 L602.7,470.8 L601.3,472.1 L598.1,475.6 L596.6,477.8 L596.2,478.2 L595.8,478.4 L595.0,478.3 L591.5,477.5" class="estero"/>
<path d="M650.0,326.6 L647.5,322.4 L646.7,321.4 L646.4,320.4 L646.3,319.8 L646.8,317.1 L646.9,315.7 L647.7,312.8 L648.3,311.0 L649.0,308.6 L649.0,307.9 L648.9,307.3 L648.7,306.9 L648.5,306.6 L648.0,306.2 L647.6,306.0 L646.4,306.1 L644.9,306.6 L643.4,307.4 L641.3,308.6 L638.0,310.3 L635.1,311.7 L634.0,311.9 L631.9,311.7 L630.3,311.5 L628.9,310.9 L628.3,309.9 L627.9,308.7 L627.8,307.8 L627.9,306.9 L628.5,306.0 L629.8,304.0 L630.3,303.4 L631.8,302.7 L633.6,301.7 L635.3,300.7 L636.6,299.3 L637.5,297.9 L637.9,296.3 L637.8,295.1 L637.3,294.4 L634.6,291.5 L633.3,290.1 L632.6,289.9 L632.2,289.8 L631.3,290.1 L630.3,290.4 L629.4,291.2 L627.2,292.3 L625.3,293.4 L621.8,295.8 L619.3,296.6 L616.9,296.4 L616.0,296.0 L615.1,294.5 L614.1,291.9 L613.9,289.4 L613.7,287.6 L613.7,286.7 L615.8,284.9 L618.5,282.8 L621.2,280.1 L624.5,277.1 L626.8,275.0 L631.9,270.1 L632.5,270.1 L634.4,270.0 L634.6,270.0" class="estero"/>
<path d="M637.4,273.8 L637.1,273.5 L636.0,272.9 L635.1,272.4 L634.4,272.2 L633.8,272.0 L633.3,272.0 L633.1,272.0 L633.0,272.0 L632.9,272.1 L632.7,272.1 L632.5,272.3 L631.9,272.9 L628.2,276.5 L627.5,277.1 L625.8,278.2 L621.5,281.7 L617.0,285.0 L615.4,287.3 L614.7,289.0 L615.5,292.2 L617.1,295.1 L619.0,295.5 L621.1,295.0 L622.8,293.9 L623.5,292.8 L626.7,290.8 L629.3,288.7 L631.2,288.4 L632.5,289.0 L633.7,288.9 L634.8,289.4 L636.1,290.8 L638.2,293.5 L638.8,294.6 L639.3,295.9 L639.4,296.7 L639.2,297.2 L638.5,298.7 L637.1,301.1 L636.3,302.0 L634.5,302.8 L631.3,304.3 L630.0,305.3 L629.3,306.7 L629.2,308.3 L629.5,309.2 L629.9,309.9 L630.6,310.2 L632.1,310.5 L633.7,310.4 L636.4,310.0 L640.1,308.4 L642.4,307.0 L644.7,305.4 L646.8,304.8 L648.3,305.1 L649.0,305.8 L649.8,307.1 L650.4,309.4 L650.0,311.4 L648.6,313.8 L648.0,315.4 L647.6,318.2 L647.5,319.6 L647.7,320.9 L649.7,323.3 L651.1,323.9" class="estero"/>
<path d="M651.1,323.9 L651.4,323.7 L651.8,323.8 L652.2,323.9 L652.8,323.5 L656.9,319.6 L662.1,315.1 L665.3,313.2 L669.0,311.5 L671.1,311.0 L671.6,311.0 L672.4,311.6 L673.3,312.2 L674.4,312.3 L675.1,312.1 L676.7,311.3 L678.7,310.5 L679.7,309.6 L680.2,309.2 L681.2,308.7 L687.5,307.9 L689.3,307.8 L692.8,308.1 L700.9,309.1 L701.3,309.0 L701.7,309.0" class="water"/>
<path d="M591.5,477.5 L590.8,477.1 L589.7,477.2 L589.2,477.4 L588.8,477.6 L588.3,478.2 L587.9,478.9 L587.5,479.1 L585.3,479.1 L583.4,478.3 L582.6,477.6 L581.9,477.3 L578.9,476.9 L575.4,476.4 L567.8,474.6 L566.5,474.3 L566.3,474.0 L566.0,473.0 L565.8,471.7 L565.5,471.4 L565.1,471.1 L564.2,470.8 L563.4,470.5 L561.9,470.2 L561.3,470.5 L560.8,471.3 L560.5,471.6 L560.1,471.9 L559.9,472.1 L559.7,472.1" class="estero"/>
<path d="M524.8,498.1 L523.6,496.7 L523.6,496.4 L523.6,496.3 L523.8,496.1 L524.6,495.6 L525.5,494.9 L526.4,493.6 L526.4,493.1 L526.3,492.8 L525.8,491.9 L525.8,491.5 L526.0,491.2 L530.4,488.1 L534.7,484.9 L541.0,480.5 L546.3,476.8 L552.0,472.7 L555.9,470.0 L556.3,470.1 L558.0,471.0 L559.7,472.1" class="water"/>
<circle cx="589.2" cy="386.2" r="18" class="halo"/>
<circle cx="589.2" cy="386.2" r="7" class="site"/>
<text x="601.2" y="374.2" class="legend" font-weight="800">Malacanang Palace</text>
<g transform="translate(28,622)"><rect x="0" y="0" width="390" height="76" rx="8" fill="white" stroke="#d7dde6"/><path d="M16 22 H56" class="water"/><text x="66" y="27" class="legend">Pasig River / major waterway</text><path d="M16 47 H56" class="estero"/><text x="66" y="52" class="legend">Estero / minor waterway</text><circle cx="242" cy="22" r="6" class="floodpt"/><text x="258" y="27" class="legend">MMDA flood-prone point</text><rect x="236" y="42" width="22" height="14" class="mgb"/><text x="266" y="53" class="legend">MGB moderate polygon</text></g>
</svg>