<svg xmlns="http://www.w3.org/2000/svg" width="1120" height="720" viewBox="0 0 1120 720" role="img" aria-label="Map Plate 3 - MMDA Flood-Prone Point Context">
<style>text{font-family:Inter,Arial,sans-serif;fill:#18222f}.title{font-size:28px;font-weight:800}.sub{font-size:14px;fill:#5e6b7a}.small{font-size:12px;fill:#5e6b7a}.legend{font-size:13px}.water{fill:none;stroke:#1167b1;stroke-width:4;stroke-linecap:round;stroke-linejoin:round}.estero{fill:none;stroke:#49a2bd;stroke-width:2.2;stroke-linecap:round;stroke-linejoin:round}.mgb{fill:#f0b34a;fill-opacity:.24;stroke:#9a6a00;stroke-width:2}.floodpt{fill:#a82c23;stroke:white;stroke-width:1.5}.site{fill:#111827;stroke:white;stroke-width:3}.halo{fill:#111827;opacity:.12}</style>
<rect width="100%" height="100%" fill="#f6f8fb"/>
<path d="M0 80 H1120" stroke="#d7dde6"/>
<text x="28" y="38" class="title">Map Plate 3 - MMDA Flood-Prone Point Context</text>
<text x="28" y="62" class="sub">Nearest 35 flood-prone point records returned by 3 km query</text>
<circle cx="555.4" cy="363.7" r="214.9" fill="none" stroke="#778596" stroke-width="1.2" stroke-dasharray="6 6"/><text x="778.3" y="358.7" class="small">3,000 m radius</text>
<circle cx="632.9" cy="302.1" r="6.5" class="floodpt"/>
<circle cx="459.8" cy="395.3" r="6.8" class="floodpt"/>
<circle cx="455.2" cy="395.2" r="6.8" class="floodpt"/>
<circle cx="456.9" cy="401.2" r="6.2" class="floodpt"/>
<circle cx="459.5" cy="409.3" r="6.8" class="floodpt"/>
<circle cx="466.3" cy="426.6" r="7.4" class="floodpt"/>
<circle cx="450.6" cy="396.8" r="6.2" class="floodpt"/>
<circle cx="450.6" cy="396.8" r="6.2" class="floodpt"/>
<circle cx="450.6" cy="396.8" r="6.2" class="floodpt"/>
<circle cx="450.5" cy="396.9" r="6.2" class="floodpt"/>
<circle cx="463.8" cy="426.1" r="7.4" class="floodpt"/>
<circle cx="476.2" cy="446.6" r="6.8" class="floodpt"/>
<circle cx="475.9" cy="446.4" r="6.8" class="floodpt"/>
<circle cx="481.4" cy="454.8" r="6.8" class="floodpt"/>
<circle cx="481.5" cy="456.0" r="7.4" class="floodpt"/>
<circle cx="482.0" cy="458.4" r="8.0" class="floodpt"/>
<circle cx="460.0" cy="286.1" r="6.2" class="floodpt"/>
<circle cx="459.9" cy="286.1" r="6.8" class="floodpt"/>
<circle cx="459.9" cy="286.1" r="6.5" class="floodpt"/>
<circle cx="578.9" cy="484.5" r="6.2" class="floodpt"/>
<circle cx="578.8" cy="484.5" r="6.2" class="floodpt"/>
<circle cx="579.0" cy="484.6" r="6.8" class="floodpt"/>
<circle cx="490.1" cy="259.0" r="7.4" class="floodpt"/>
<circle cx="489.9" cy="258.9" r="7.1" class="floodpt"/>
<circle cx="487.3" cy="468.1" r="6.2" class="floodpt"/>
<circle cx="543.8" cy="239.1" r="7.4" class="floodpt"/>
<circle cx="543.5" cy="239.1" r="8.6" class="floodpt"/>
<circle cx="587.2" cy="485.1" r="6.8" class="floodpt"/>
<circle cx="668.9" cy="304.2" r="7.4" class="floodpt"/>
<circle cx="669.5" cy="304.3" r="6.2" class="floodpt"/>
<circle cx="491.6" cy="475.8" r="8.0" class="floodpt"/>
<circle cx="565.2" cy="235.0" r="6.8" class="floodpt"/>
<circle cx="565.5" cy="235.0" r="7.4" class="floodpt"/>
<circle cx="565.1" cy="234.9" r="6.8" class="floodpt"/>
<circle cx="460.5" cy="275.3" r="6.5" class="floodpt"/>
<circle cx="555.4" cy="363.7" r="18" class="halo"/>
<circle cx="555.4" cy="363.7" r="7" class="site"/>
<text x="567.4" y="351.7" class="legend" font-weight="800">Malacanang Palace</text>
<g transform="translate(28,622)"><rect x="0" y="0" width="390" height="76" rx="8" fill="white" stroke="#d7dde6"/><path d="M16 22 H56" class="water"/><text x="66" y="27" class="legend">Pasig River / major waterway</text><path d="M16 47 H56" class="estero"/><text x="66" y="52" class="legend">Estero / minor waterway</text><circle cx="242" cy="22" r="6" class="floodpt"/><text x="258" y="27" class="legend">MMDA flood-prone point</text><rect x="236" y="42" width="22" height="14" class="mgb"/><text x="266" y="53" class="legend">MGB moderate polygon</text></g>
</svg>