<svg xmlns="http://www.w3.org/2000/svg" width="1120" height="720" viewBox="0 0 1120 720" role="img" aria-label="Map Plate 1 - Flood Evidence Overview">
<style>text{font-family:Inter,Arial,sans-serif;fill:#18222f}.title{font-size:28px;font-weight:800}.sub{font-size:14px;fill:#5e6b7a}.small{font-size:12px;fill:#5e6b7a}.legend{font-size:13px}.water{fill:none;stroke:#1167b1;stroke-width:4;stroke-linecap:round;stroke-linejoin:round}.estero{fill:none;stroke:#49a2bd;stroke-width:2.2;stroke-linecap:round;stroke-linejoin:round}.mgb{fill:#f0b34a;fill-opacity:.24;stroke:#9a6a00;stroke-width:2}.floodpt{fill:#a82c23;stroke:white;stroke-width:1.5}.site{fill:#111827;stroke:white;stroke-width:3}.halo{fill:#111827;opacity:.12}</style>
<rect width="100%" height="100%" fill="#f6f8fb"/>
<path d="M0 80 H1120" stroke="#d7dde6"/>
<text x="28" y="38" class="title">Map Plate 1 - Flood Evidence Overview</text>
<text x="28" y="62" class="sub">MGB flood susceptibility polygon, MMDA waterways, and nearest MMDA flood-prone point records</text>
<circle cx="555.4" cy="363.7" r="214.9" fill="none" stroke="#778596" stroke-width="1.2" stroke-dasharray="6 6"/><text x="778.3" y="358.7" class="small">3,000 m radius</text>
<path d="M549.0,313.4 L547.8,312.5 L545.7,312.1 L543.6,312.3 L541.4,313.3 L540.3,313.7 L538.5,313.2 L537.2,312.4 L536.2,312.5 L535.2,313.5 L534.0,315.3 L533.6,318.7 L533.4,320.3 L533.3,322.1 L533.0,323.4 L532.7,325.0 L532.0,326.2 L530.8,328.0 L530.0,329.1 L529.4,330.4 L528.8,331.6 L528.1,335.5 L528.1,337.0 L528.2,338.1 L528.6,339.7 L529.2,341.2 L530.0,343.1 L530.1,344.6 L531.2,347.3 L531.8,349.4 L531.8,350.5 L531.7,351.6 L531.2,352.7 L530.8,353.6 L530.3,355.2 L529.9,357.5 L529.2,361.5 L528.4,364.3 L527.2,366.6 L526.7,367.7 L525.8,368.8 L525.2,369.4 L523.9,370.1 L522.3,370.7 L520.8,371.2 L518.0,371.3 L515.5,370.8 L514.4,370.3 L512.4,369.2 L511.3,368.0 L509.8,366.7 L508.6,365.7 L507.0,364.2 L505.7,363.0 L504.7,362.4 L502.6,361.1 L500.8,359.6 L500.0,359.0 L499.0,358.5 L497.7,357.6 L496.3,356.6 L495.2,356.0 L493.7,355.4 L492.0,355.1 L490.4,355.0 L488.1,354.9 L485.1,354.8 L484.2,354.6 L483.3,354.4 L481.4,354.1 L479.5,354.4 L478.7,354.6 L477.1,355.0 L475.8,355.4 L474.5,355.8 L472.9,356.2 L472.2,356.6 L471.2,357.7 L470.9,359.2 L471.2,359.8 L472.4,361.8 L473.3,363.1 L474.6,364.8 L474.9,365.2 L475.2,365.6 L475.8,366.2 L476.9,367.2 L477.1,367.5 L477.8,368.4 L478.7,369.6 L479.0,370.0 L479.6,370.4 L480.4,371.1 L481.0,371.7 L481.9,372.6 L483.2,373.9 L484.5,375.1 L486.5,376.5 L489.3,378.3 L491.2,379.6 L492.0,380.2 L492.3,380.3 L492.7,380.3 L494.5,380.9 L495.8,381.2 L497.2,381.7 L497.8,381.9 L499.5,382.2 L502.1,382.6 L504.8,383.1 L507.0,383.0 L509.8,382.9 L512.2,382.8 L513.9,382.8 L515.5,382.9 L517.5,383.0 L519.2,383.1 L522.6,383.4 L523.5,383.4 L526.8,383.4 L529.3,383.4 L530.9,383.3 L531.9,383.2 L532.7,382.9 L534.1,382.4 L535.4,381.9 L537.0,381.9 L537.7,381.8 L539.2,381.5 L540.5,381.1 L541.4,380.8 L542.4,380.6 L544.0,379.9 L545.5,379.3 L546.1,379.0 L547.2,378.5 L547.8,378.1 L549.0,377.2 L550.1,376.3 L551.0,375.6 L552.1,374.1 L553.4,372.4 L554.6,370.6 L555.5,369.4 L556.2,368.3 L556.8,367.6 L556.9,367.6 L557.8,366.3 L558.9,364.7 L559.3,364.2 L559.3,364.1 L559.3,363.9 L559.3,363.7 L560.1,362.1 L560.9,360.6 L562.0,358.6 L562.9,356.8 L564.0,354.6 L564.9,352.8 L565.4,351.8 L567.1,350.8 L568.3,349.9 L569.3,349.3 L570.6,348.3 L571.1,347.7 L571.7,346.9 L572.0,346.5 L573.1,345.7 L573.0,344.8 L572.7,344.0 L572.1,343.1 L570.9,342.2 L569.6,341.7 L569.0,341.6 L568.1,341.4 L566.9,341.1 L566.5,340.5 L566.1,339.2 L565.8,337.9 L565.9,336.8 L565.8,336.2 L565.3,335.8 L564.7,335.7 L564.2,335.8 L563.1,336.2 L562.2,336.4 L561.4,336.1 L560.9,335.0 L560.6,334.1 L560.3,332.7 L560.5,331.6 L560.6,330.7 L561.3,329.4 L562.1,328.3 L562.9,327.0 L563.5,326.1 L564.0,325.2 L565.4,324.2 L566.6,323.5 L567.3,322.6 L567.3,321.7 L566.8,320.6 L565.5,319.1 L564.1,318.0 L562.7,317.3 L561.6,316.9 L559.9,316.5 L558.3,316.5 L557.2,316.0 L556.1,315.9 L554.8,315.9 L553.2,315.8 L552.2,315.2 L550.7,314.0 L549.0,313.4 Z" class="mgb"/>
<path d="M470.7,357.3 L470.6,357.4 L471.1,358.4 L472.9,361.6 L475.7,365.4 L477.6,367.2 L479.3,369.6 L481.7,371.7 L485.1,375.0 L489.6,378.2 L492.2,379.8 L493.4,380.2 L496.2,381.0 L496.8,381.5 L497.9,381.8 L498.7,381.8 L505.0,382.9 L509.0,382.8 L514.1,382.6 L515.4,382.9 L517.2,382.8 L519.2,382.9 L522.9,383.3 L527.3,383.3 L529.1,383.3 L529.2,383.4 L529.4,383.5 L529.6,383.5 L529.8,383.5 L530.2,383.4 L530.5,383.3 L531.9,383.2 L533.4,382.7 L534.4,382.3 L535.3,382.3 L537.7,381.8 L539.9,381.5 L541.0,381.3 L541.4,381.0 L541.9,380.7 L543.1,380.3 L544.3,379.9 L546.4,378.9 L547.3,378.5 L548.2,377.9 L549.0,377.4 L550.0,376.6 L551.1,375.6 L551.6,375.0 L552.5,373.9 L553.0,373.2 L553.6,372.5 L554.6,370.9 L555.7,369.4 L556.9,367.8 L557.7,366.8 L559.0,365.1 L559.6,364.3 L559.7,364.1 L559.7,363.9 L559.6,363.8 L559.7,363.6 L560.2,362.5 L561.0,361.1 L561.8,359.5 L562.5,358.1 L564.6,354.0 L565.0,353.2 L565.1,353.2 L565.2,353.2 L565.3,353.2 L565.4,353.2 L565.5,353.2 L565.6,353.2 L567.3,351.4 L567.6,351.1 L567.6,351.0 L567.6,350.9 L567.5,350.8 L567.5,350.7 L567.7,350.5 L568.5,350.0 L568.5,350.0 L568.6,349.9 L568.6,349.9 L568.7,349.9 L568.8,349.8 L568.8,349.8 L568.9,349.7 L568.9,349.7 L569.0,349.7 L569.1,349.6 L569.1,349.6 L569.2,349.5 L569.2,349.5 L569.3,349.5 L569.4,349.4 L569.4,349.4 L569.5,349.3 L569.5,349.3 L569.6,349.3 L569.7,349.2 L569.7,349.2 L569.8,349.1 L569.8,349.1 L569.9,349.1 L570.0,349.0 L570.0,349.0 L570.1,348.9 L570.1,348.9 L570.2,348.9 L571.1,348.0 L572.0,346.8 L572.3,346.5 L572.8,346.2 L574.0,345.3 L575.2,344.3 L575.6,343.9" class="water"/>
<path d="M620.7,350.3 L620.2,350.1 L620.0,350.2 L619.3,350.5 L619.1,350.6 L618.7,350.6 L618.4,350.5 L618.2,350.6 L618.1,350.6 L617.6,351.0 L617.1,351.3 L617.0,351.4 L616.9,351.3 L616.6,351.2 L616.4,351.1 L616.2,351.1 L615.8,351.3 L613.6,352.3 L612.8,352.7 L612.7,352.7 L612.4,352.6 L611.9,352.4 L611.4,352.5 L609.9,352.0 L609.8,351.9 L609.5,351.6 L608.9,351.0 L608.2,350.4 L606.9,349.4 L605.4,348.1 L605.0,347.9 L603.8,347.4 L602.6,347.2 L600.0,347.1 L598.7,346.9 L596.5,346.8 L594.2,346.6 L592.7,346.5 L591.2,346.5 L588.5,346.6 L587.1,346.8 L586.1,346.9 L585.5,347.2 L584.5,347.9 L583.2,348.9 L581.8,350.3 L580.3,351.5 L578.5,353.0 L577.2,354.0 L577.0,354.2 L576.9,354.5 L576.9,354.7 L577.0,355.1 L577.0,355.2 L577.0,355.2 L576.9,355.4 L575.6,356.5 L575.2,356.7 L575.1,356.7 L574.9,356.6 L574.6,356.7 L574.5,356.8 L574.4,356.8 L574.3,356.8 L574.1,356.8 L574.0,356.7 L573.8,356.5 L573.7,356.5 L573.6,356.5 L573.2,356.9 L573.0,357.0 L573.0,357.1 L573.0,357.3 L573.0,357.4 L573.0,357.8 L573.0,358.1 L572.9,358.3 L572.4,358.8 L571.5,359.6 L570.8,360.2 L570.1,360.8 L569.2,361.9 L569.0,362.4 L568.9,363.1 L568.5,363.9 L567.9,365.1 L567.2,366.6 L566.5,368.1 L565.8,369.5 L565.1,371.0 L564.6,371.7 L564.4,372.1 L563.5,373.5 L562.7,374.7 L562.2,375.3 L561.6,376.1 L560.7,377.0 L559.4,378.1 L559.0,378.6 L558.5,379.2 L558.4,379.6 L558.4,380.1 L558.2,380.7 L558.1,380.9 L557.9,381.2 L555.9,382.7 L553.4,384.6 L551.5,385.9 L550.5,386.6 L549.3,387.6 L548.0,388.7 L546.9,389.8" class="water"/>
<path d="M570.5,325.1 L570.5,325.0 L570.5,324.5 L570.5,323.7 L570.4,323.6 L570.3,322.9 L570.0,322.3 L569.9,322.1 L569.9,322.0 L569.8,321.8 L569.2,321.2 L568.3,320.1 L568.2,320.0 L568.1,319.7 L568.0,319.3 L567.8,319.0 L567.5,318.5 L567.2,317.9 L567.0,317.5 L566.8,317.0 L566.7,316.6 L566.5,316.4 L566.2,316.0 L566.1,315.7 L565.2,314.9 L564.9,314.7 L564.8,314.6 L564.7,314.6 L564.5,314.5 L564.2,314.5 L563.7,314.4 L563.5,314.4 L563.1,314.4 L562.9,314.4 L562.7,314.4 L562.3,314.5 L561.9,314.6 L561.7,314.7 L561.5,314.7 L561.2,314.8 L560.8,314.8 L560.3,314.8 L559.7,314.7 L559.0,314.7 L558.5,314.6 L557.9,314.5 L557.5,314.3 L557.2,314.2 L557.0,314.1 L557.0,314.1 L556.7,314.0 L556.3,313.9 L554.9,313.7 L554.5,313.7 L554.5,313.6 L554.5,313.5 L554.5,313.5 L554.4,313.5 L554.2,313.5 L554.1,313.4 L554.0,313.3 L553.8,313.2 L553.5,313.0 L553.0,312.4 L552.4,311.5 L551.8,310.5 L551.5,310.0 L551.4,309.9 L551.3,309.8 L550.9,309.5 L550.5,309.4 L550.1,309.3 L550.0,309.3 L549.9,309.3 L549.7,309.3 L549.6,309.3 L549.3,309.4 L549.1,309.4 L548.9,309.4 L548.6,309.5 L548.1,309.7 L547.8,309.9 L547.2,310.2 L546.5,310.7 L546.3,310.9 L546.0,311.0 L545.6,311.1 L545.1,311.2 L544.0,311.4 L543.0,311.6 L542.8,311.7 L542.6,311.7 L542.2,311.8 L541.9,311.8 L541.4,311.7 L541.1,311.6 L540.8,311.5 L540.4,311.2 L539.9,311.0 L539.4,310.7 L539.1,310.5 L538.8,310.3 L538.1,309.9 L537.8,309.9 L536.9,309.9 L536.8,309.9 L536.6,309.9 L536.2,310.1 L536.0,310.2 L535.7,310.4 L534.7,311.6 L534.5,311.8 L534.4,311.9 L534.2,312.4 L534.0,312.7 L533.8,313.2 L533.6,313.7 L533.4,314.3 L532.8,316.5 L532.8,316.5 L532.6,317.1 L532.3,318.8 L531.6,321.5 L531.3,322.5 L531.3,322.7 L531.3,322.8 L531.2,323.1 L531.2,323.4 L531.2,323.6 L531.3,324.0 L531.3,324.5 L531.4,325.1 L531.4,325.8 L531.2,326.9 L531.2,327.2 L531.1,327.4 L530.7,327.7 L530.1,327.9 L529.8,328.4 L529.4,329.0 L528.8,330.3 L528.4,330.9 L528.0,331.5 L527.7,332.3 L527.4,333.0 L527.2,333.7 L527.2,334.1 L527.3,334.4 L527.3,335.3 L527.4,335.8 L527.3,336.5 L527.3,338.1 L527.3,338.8 L527.6,340.3 L527.8,341.3 L528.2,342.0 L528.4,342.6 L528.4,343.0 L528.6,343.7 L529.0,344.0 L529.3,344.5 L529.8,345.2 L529.9,345.5 L530.0,346.2 L530.1,347.5 L530.3,348.9 L530.4,350.2 L530.6,350.9 L530.7,351.5 L530.7,352.2 L530.7,352.7 L530.2,353.4 L530.0,353.9 L529.7,355.0 L529.6,355.6 L529.4,356.4 L529.0,357.5 L528.5,359.0 L528.0,360.4 L527.6,361.8 L527.1,363.2 L526.9,363.7 L526.9,364.1 L527.0,364.7 L527.0,365.1 L526.8,365.5 L526.4,366.2 L526.1,366.7 L525.5,367.5 L524.9,368.1 L524.2,368.5 L523.2,368.9 L520.5,369.4 L520.1,369.4 L519.0,369.4 L517.4,369.3 L514.4,367.5 L513.4,366.6 L511.7,364.9 L509.2,362.8 L508.6,362.4 L508.0,361.2 L507.7,361.0 L506.6,360.3 L501.3,356.5 L499.2,355.2 L497.6,354.6 L492.6,353.2 L491.8,353.0 L491.1,353.2 L489.2,354.0 L488.4,354.0 L484.8,353.3 L481.4,352.4 L480.9,352.4 L480.2,352.4 L480.0,352.3 L479.4,352.2 L477.4,353.1 L477.1,353.4 L476.6,353.9 L476.3,354.0 L473.3,356.1 L470.7,357.3" class="estero"/>
<path d="M571.5,326.0 L571.5,326.0 L571.4,325.8 L571.4,325.7 L571.4,325.5 L571.3,325.0 L571.3,324.2 L571.3,324.1 L571.3,324.1 L571.2,323.5 L571.2,323.5 L571.0,322.7 L570.9,322.6 L570.5,321.7 L570.5,321.6 L570.2,321.3 L569.7,320.6 L568.8,319.6 L568.7,319.5 L568.5,319.0 L568.4,318.7 L568.1,318.2 L567.8,317.6 L567.6,317.2 L567.4,316.7 L567.2,316.3 L567.1,316.1 L566.8,315.6 L566.6,315.3 L565.7,314.4 L565.3,314.1 L565.0,314.0 L564.9,314.0 L564.7,313.9 L564.3,313.8 L563.8,313.8 L563.5,313.8 L563.1,313.8 L562.8,313.8 L562.6,313.8 L562.1,313.9 L561.8,314.0 L561.6,314.0 L561.4,314.1 L561.1,314.1 L560.8,314.1 L560.3,314.1 L559.7,314.1 L559.1,314.1 L558.6,314.0 L558.0,313.8 L557.7,313.7 L557.4,313.6 L557.2,313.5 L556.8,313.4 L556.2,313.3 L555.0,313.3 L554.7,313.2 L554.5,313.2 L554.3,313.1 L554.2,313.1 L553.9,312.9 L553.8,312.8 L553.6,312.5 L553.4,312.3 L553.1,312.0 L552.7,311.5 L552.5,311.2 L552.2,310.7 L552.0,310.3 L551.7,310.0 L551.6,309.8 L551.3,309.5 L551.0,309.3 L550.6,309.2 L550.3,309.1 L549.9,309.1 L549.6,309.1 L549.2,309.1 L548.7,309.2 L548.4,309.3 L547.9,309.5 L547.5,309.7 L546.8,310.2 L546.2,310.5 L545.7,310.7 L545.1,310.8 L543.9,311.0 L542.4,311.3 L542.1,311.3 L541.8,311.3 L541.5,311.2 L541.2,311.2 L541.0,311.1 L540.7,310.9 L540.2,310.6 L539.6,310.3 L539.3,310.1 L538.7,309.6 L538.5,309.5 L538.3,309.5 L537.9,309.4 L537.3,309.3 L536.9,309.3 L536.8,309.3" class="estero"/>
<path d="M490.7,351.8 L491.3,352.2 L493.2,352.6 L495.0,353.1 L498.7,354.0 L499.8,354.1 L501.1,354.7 L502.2,355.4 L503.6,356.4 L507.0,359.3 L508.0,360.1 L508.4,360.4 L509.3,361.2 L510.2,361.7 L513.2,364.8 L514.2,365.8 L515.0,366.7 L516.0,367.6 L517.4,368.2 L518.6,368.6 L519.9,368.8 L520.1,368.8 L520.5,368.8 L521.8,368.6 L523.3,368.3 L524.4,367.9 L524.9,367.6 L525.4,366.9 L526.1,365.7 L526.4,364.8 L526.6,363.7 L527.1,362.6 L527.4,361.4 L527.9,359.8 L528.5,358.1 L528.8,357.0 L529.2,355.5 L529.2,354.8 L529.4,353.6 L529.7,352.2 L529.6,350.8 L529.5,349.2 L529.5,347.6 L529.4,346.3 L529.3,345.5 L529.2,345.1 L528.7,344.4 L528.4,343.9 L528.2,343.7 L527.7,343.0 L527.2,341.7 L527.2,341.6 L527.2,341.5 L527.2,341.5 L527.2,341.4 L527.1,341.3 L527.1,341.2 L527.1,341.1 L527.1,341.1 L527.1,341.0 L527.0,340.9 L527.0,340.8 L527.0,340.7 L527.0,340.6 L527.0,340.6 L526.9,340.5 L526.9,340.4 L526.9,340.3 L526.9,340.2 L526.9,340.2 L526.8,340.1 L526.8,340.0 L526.8,339.9 L526.8,339.8 L526.8,339.8 L526.7,339.7 L526.7,339.6 L526.7,339.5 L526.7,339.4 L526.7,339.4 L526.5,338.7 L526.3,337.9 L526.2,337.5 L526.3,336.7 L526.5,336.5 L526.7,335.2 L526.9,334.3 L527.0,333.5 L527.1,333.0 L527.6,331.6 L528.3,330.3 L528.6,329.8 L529.1,328.7 L529.6,327.4 L529.8,326.9 L529.9,326.6 L530.1,326.0 L530.2,325.7 L530.2,325.3 L530.2,324.5 L530.3,323.4 L530.4,322.9 L530.4,322.6 L530.6,321.9 L531.1,320.0 L531.5,318.5 L531.7,317.7 L531.8,317.1 L532.1,316.0 L532.1,315.9 L532.7,313.7 L532.9,313.3 L533.2,312.8 L533.5,312.3 L533.8,311.9" class="estero"/>
<path d="M546.9,389.8 L546.8,390.0 L546.8,390.6 L546.8,390.8 L547.0,391.1 L547.3,391.4 L547.6,391.5 L548.6,391.9 L550.1,392.3 L551.9,392.7 L552.7,392.9 L554.2,393.1 L555.8,393.5 L556.2,393.6 L556.4,393.7" class="estero"/>
<path d="M556.4,393.7 L557.1,393.8 L557.2,393.9 L557.4,393.8 L557.6,393.8 L557.7,393.6 L557.8,393.5 L558.2,393.3 L558.4,393.1 L558.8,392.7 L559.2,392.2 L559.3,392.0 L560.0,391.5 L560.8,391.2 L560.9,390.9 L561.0,390.8 L561.4,390.7 L561.5,390.7 L561.7,390.7 L562.2,390.7 L563.5,390.7 L563.7,390.9 L564.0,391.2 L564.6,391.6 L566.1,392.9 L566.3,393.2 L566.5,393.6 L566.8,394.1 L567.0,394.2 L567.4,394.6 L567.9,394.9 L568.2,395.1 L568.4,395.1 L568.6,395.1 L569.4,394.6 L570.3,394.3 L570.9,394.1 L571.5,394.0 L572.4,393.8" class="estero"/>
<path d="M572.6,394.1 L571.8,394.3 L570.3,394.8 L569.6,395.1 L568.8,395.4 L568.2,395.4 L567.5,395.4 L567.2,395.3 L566.4,394.8 L566.2,394.6 L565.8,394.2 L564.7,393.3 L564.2,392.8 L563.6,392.4 L563.2,392.0 L562.8,391.7 L562.6,391.6 L562.3,391.3 L561.6,391.1 L561.1,391.2 L560.8,391.3 L559.9,391.8 L559.4,392.3 L558.3,393.4 L557.8,394.1 L557.7,394.3 L557.6,394.3 L557.3,394.3 L556.2,394.0" class="estero"/>
<path d="M575.6,343.9 L574.8,342.5 L574.5,342.2 L574.4,341.8 L574.4,341.6 L574.5,340.7 L574.6,340.2 L574.8,339.3 L575.0,338.7 L575.3,337.9 L575.3,337.7 L575.2,337.5 L575.2,337.3 L575.1,337.2 L574.9,337.1 L574.8,337.0 L574.4,337.1 L573.9,337.2 L573.4,337.5 L572.7,337.9 L571.6,338.5 L570.6,338.9 L570.3,339.0 L569.6,338.9 L569.0,338.9 L568.6,338.7 L568.4,338.3 L568.3,337.9 L568.2,337.7 L568.3,337.3 L568.4,337.0 L568.9,336.4 L569.1,336.2 L569.6,336.0 L570.2,335.6 L570.7,335.3 L571.2,334.8 L571.4,334.4 L571.6,333.8 L571.5,333.4 L571.4,333.2 L570.5,332.2 L570.0,331.8 L569.8,331.7 L569.7,331.7 L569.4,331.7 L569.1,331.9 L568.8,332.1 L568.0,332.5 L567.4,332.8 L566.2,333.6 L565.4,333.9 L564.6,333.9 L564.3,333.7 L564.0,333.2 L563.7,332.4 L563.6,331.5 L563.5,330.9 L563.5,330.6 L564.2,330.0 L565.1,329.3 L566.0,328.4 L567.1,327.4 L567.9,326.7 L569.6,325.1 L569.8,325.1 L570.4,325.1 L570.5,325.1" class="estero"/>
<path d="M571.4,326.3 L571.3,326.2 L571.0,326.0 L570.7,325.9 L570.4,325.8 L570.2,325.7 L570.1,325.7 L570.0,325.7 L569.9,325.7 L569.9,325.8 L569.8,325.8 L569.8,325.8 L569.6,326.0 L568.3,327.2 L568.1,327.4 L567.6,327.8 L566.1,329.0 L564.6,330.1 L564.1,330.8 L563.9,331.4 L564.1,332.4 L564.7,333.4 L565.3,333.5 L566.0,333.4 L566.5,333.0 L566.8,332.7 L567.8,332.0 L568.7,331.3 L569.3,331.2 L569.8,331.4 L570.2,331.4 L570.6,331.5 L571.0,332.0 L571.7,332.9 L571.9,333.2 L572.1,333.7 L572.1,334.0 L572.0,334.1 L571.8,334.6 L571.3,335.4 L571.0,335.7 L570.4,336.0 L569.4,336.5 L569.0,336.8 L568.7,337.3 L568.7,337.8 L568.8,338.1 L568.9,338.3 L569.1,338.4 L569.6,338.5 L570.2,338.5 L571.1,338.4 L572.3,337.8 L573.1,337.4 L573.8,336.8 L574.5,336.6 L575.0,336.8 L575.3,337.0 L575.5,337.4 L575.7,338.2 L575.6,338.8 L575.1,339.6 L574.9,340.2 L574.8,341.1 L574.8,341.6 L574.8,342.0 L575.5,342.8 L575.9,343.0" class="estero"/>
<path d="M575.9,343.0 L576.0,342.9 L576.2,343.0 L576.3,343.0 L576.5,342.8 L577.9,341.6 L579.6,340.1 L580.7,339.4 L581.9,338.9 L582.6,338.7 L582.8,338.7 L583.1,338.9 L583.4,339.1 L583.7,339.1 L584.0,339.1 L584.5,338.8 L585.1,338.6 L585.5,338.2 L585.6,338.1 L586.0,337.9 L588.0,337.7 L588.7,337.6 L589.8,337.7 L592.5,338.1 L592.6,338.0 L592.8,338.0" class="water"/>
<path d="M556.2,394.0 L555.9,393.9 L555.5,394.0 L555.4,394.0 L555.3,394.1 L555.1,394.3 L554.9,394.5 L554.8,394.6 L554.1,394.6 L553.5,394.3 L553.2,394.1 L552.9,394.0 L552.0,393.9 L550.8,393.7 L548.3,393.1 L547.8,393.0 L547.8,392.9 L547.7,392.6 L547.6,392.1 L547.5,392.0 L547.4,391.9 L547.1,391.8 L546.8,391.7 L546.3,391.6 L546.1,391.7 L545.9,392.0 L545.8,392.1 L545.7,392.2 L545.6,392.3 L545.6,392.3" class="estero"/>
<path d="M534.0,400.9 L533.6,400.4 L533.6,400.4 L533.6,400.3 L533.6,400.2 L533.9,400.1 L534.2,399.8 L534.5,399.4 L534.5,399.3 L534.5,399.1 L534.3,398.9 L534.3,398.7 L534.4,398.6 L535.8,397.6 L537.3,396.5 L539.4,395.1 L541.1,393.8 L543.0,392.5 L544.3,391.6 L544.5,391.6 L545.0,391.9 L545.6,392.3" class="water"/>
<path d="M499.2,386.2 L499.4,385.9 L499.7,385.9 L500.0,386.2 L505.2,386.1 L510.6,385.9 L513.7,385.9 L515.2,385.8 L517.6,386.2 L521.2,386.7 L524.5,387.1 L525.2,387.4 L526.6,388.7 L526.9,389.5 L527.1,390.5 L527.0,390.8 L526.9,391.0 L526.1,391.5 L523.5,393.1 L521.8,393.9 L519.5,394.5 L518.8,394.7 L516.0,395.0 L513.1,394.7 L509.4,394.3 L505.4,394.0 L504.3,393.6 L503.7,393.2 L498.8,389.4 L496.0,387.4 L495.1,387.0 L494.9,386.9 L494.8,386.8 L495.3,386.0 L495.6,385.7 L495.8,385.7 L497.4,386.1 L499.2,386.2" class="water"/>
<path d="M578.0,327.4 L577.8,327.3 L577.1,326.5 L576.8,326.3 L576.6,326.2 L576.3,326.1 L576.0,326.1 L575.6,326.1 L575.4,326.1 L575.1,326.2 L574.5,326.4 L574.2,326.5 L573.9,326.5 L573.7,326.5 L573.5,326.5 L573.3,326.5 L573.0,326.4 L571.4,326.3" class="estero"/>
<path d="M593.4,328.1 L593.1,328.1 L592.4,328.1 L589.7,327.9 L589.6,327.9 L589.4,327.9 L589.3,327.9 L589.2,327.8 L589.0,327.8 L588.9,327.8 L588.8,327.8 L588.6,327.8 L588.5,327.8 L588.3,327.7 L588.2,327.7 L588.1,327.7 L587.9,327.7 L587.8,327.7 L587.7,327.7 L587.5,327.6 L587.4,327.6 L587.3,327.6 L587.1,327.6 L587.0,327.6 L586.9,327.6 L586.7,327.5 L586.6,327.5 L586.4,327.5 L586.3,327.5 L586.2,327.5 L586.0,327.4 L585.9,327.4 L585.8,327.4 L582.2,327.4 L580.8,327.5 L580.3,327.7 L578.7,327.8 L578.1,327.6 L578.0,327.4" class="estero"/>
<path d="M571.5,326.0 L573.1,326.1 L573.4,326.2 L573.5,326.2 L573.7,326.2 L573.9,326.2 L574.1,326.1 L574.4,326.1 L575.0,325.8 L575.3,325.7 L575.6,325.7 L576.0,325.7 L576.4,325.7 L576.7,325.9 L577.0,326.0 L577.3,326.3 L578.1,327.0 L578.2,327.1 L578.4,327.4 L578.5,327.4 L578.7,327.5 L580.3,327.5 L580.5,327.4" class="estero"/>
<path d="M534.0,400.9 L535.0,402.4 L535.3,402.8 L535.5,402.9 L535.8,402.9 L536.1,402.9 L536.4,403.0 L537.0,403.3 L537.8,404.2 L538.5,405.7 L539.7,407.9 L540.1,408.7 L540.9,410.7 L541.2,411.1 L542.1,412.3 L542.7,412.8 L543.8,413.5 L545.9,414.6 L547.3,415.4" class="estero"/>
<path d="M551.2,473.4 L551.4,472.8 L552.5,470.2 L552.7,469.6 L552.7,469.0 L552.9,467.4 L553.2,465.9 L553.8,464.9 L554.2,463.5 L554.7,461.4 L554.8,460.9 L554.9,460.1 L554.8,459.4 L554.4,458.5 L553.8,457.1 L553.5,456.6 L552.9,456.0 L552.0,455.2 L551.3,454.5 L550.5,453.3 L549.9,452.5 L549.4,451.6 L549.1,450.8 L548.5,449.6 L548.3,449.4 L548.1,449.2 L548.0,448.7 L547.6,448.0 L547.1,447.1 L546.7,446.6 L546.4,445.8 L546.1,445.0 L545.8,444.3 L545.6,444.0 L545.2,443.5 L544.6,442.8 L544.4,442.5 L544.0,441.8 L543.6,441.1 L543.0,439.8 L543.0,439.7 L542.9,439.7 L542.7,439.7 L542.6,439.7 L542.5,439.6 L541.6,436.9 L541.6,436.9 L541.7,436.8 L541.8,436.7 L541.7,436.4 L541.4,435.6 L540.5,434.4 L539.8,432.3 L539.6,431.7 L539.5,431.0 L539.5,430.3 L539.6,429.5 L539.7,429.2 L540.0,428.4 L540.8,426.3 L541.0,425.9 L541.3,425.4 L541.9,424.4 L543.8,421.4 L545.0,419.4 L545.2,419.0 L545.3,418.6 L545.8,417.0 L545.8,416.6 L545.6,416.3 L544.1,415.2 L542.6,414.3 L541.6,413.6 L540.9,413.1 L540.5,412.7 L540.0,412.1 L539.2,410.6 L538.2,408.5 L537.8,407.8 L537.4,407.0 L536.6,405.9 L536.2,405.4 L535.3,404.5 L534.6,403.8 L534.1,403.0 L533.2,401.8 L532.7,400.9 L532.2,400.4" class="estero"/>
<path d="M532.2,400.4 L532.0,400.3 L531.6,400.4 L530.6,400.9 L530.2,401.1 L529.4,401.6 L529.2,401.8 L529.1,402.0 L528.9,402.5" class="water"/>
<path d="M580.5,327.4 L581.6,327.0 L582.1,326.9 L582.7,326.8 L583.2,326.8 L584.3,326.8 L585.8,326.7 L587.3,326.7 L588.0,326.7 L589.7,326.7 L589.9,326.7 L590.7,326.8 L592.5,327.2 L593.9,327.4 L594.3,327.5 L595.3,327.5 L595.8,327.5 L595.9,327.4 L596.1,327.3 L596.5,326.9 L596.7,326.5 L596.9,326.1 L597.1,325.4 L597.2,325.0 L597.2,324.7 L597.1,324.6 L597.1,324.4 L596.7,323.6 L596.5,323.0 L596.2,322.1 L595.8,321.1 L595.5,320.0 L595.2,319.3 L595.1,318.9 L594.9,318.7 L593.6,316.8 L592.0,314.5 L591.8,314.3 L589.4,311.3 L588.5,310.2 L588.5,310.2 L588.4,309.8 L588.3,309.5 L588.2,308.8 L588.2,308.0 L587.9,306.0 L586.5,303.3 L585.7,301.6 L585.3,300.8 L585.1,300.4 L585.1,299.8 L585.1,299.6 L585.2,299.4 L585.3,299.1 L585.5,298.9 L585.6,298.6 L586.1,298.1 L586.5,297.6 L586.7,297.4 L586.8,297.2 L586.9,297.1 L587.0,296.2 L586.9,295.6 L575.1,267.4 L574.8,266.8 L574.5,265.8 L574.3,265.1 L574.3,264.6 L574.3,263.9 L574.5,263.3 L574.5,263.1 L574.4,261.9 L574.2,261.2 L574.0,260.5 L573.8,260.1 L573.4,259.6 L572.9,259.1 L571.2,256.8 L569.6,254.8 L569.4,254.5 L569.3,254.0 L569.0,253.3 L568.8,253.0 L568.3,252.2 L568.0,251.7 L567.6,251.1 L566.5,249.7" class="estero"/>
<path d="M592.8,338.0 L592.9,337.9 L593.0,337.6 L593.0,337.1 L593.1,336.7 L593.2,335.6 L593.2,335.2 L593.1,333.1 L593.1,332.8 L593.1,331.7 L593.2,330.7 L593.4,329.3 L593.5,328.3 L593.4,328.1" class="estero"/>
<path d="M528.9,402.5 L528.8,405.3 L528.8,406.0 L528.8,406.3 L528.5,406.9 L528.2,407.7 L528.0,408.6 L527.7,409.8 L527.7,410.8 L527.9,412.9 L528.0,413.1 L528.2,413.3 L528.3,413.4 L529.2,413.6 L532.2,414.1 L532.0,415.3 L528.4,414.9 L528.3,414.8 L528.2,414.9 L528.2,415.2 L528.0,419.0 L528.0,419.5 L527.9,420.3 L527.2,422.6 L526.9,423.5 L526.5,424.9 L526.5,425.7 L526.6,426.3 L527.0,428.3 L527.1,429.1 L528.1,431.3 L528.1,431.3 L528.1,431.4 L527.7,431.6 L527.6,431.7 L527.6,431.9 L527.6,432.3 L527.9,433.0 L528.2,433.6 L529.1,435.5 L529.6,436.2 L530.0,437.0 L530.3,437.7" class="estero"/>
<path d="M594.3,336.6 L594.5,336.6 L595.2,337.1 L595.3,337.2 L595.3,337.2 L595.3,337.4 L595.3,337.5 L595.6,337.7 L595.7,337.8 L595.7,337.9 L595.5,338.2 L595.4,338.3 L595.3,338.3 L595.2,338.5 L595.3,338.6 L596.0,338.7 L597.9,339.6 L597.9,339.6 L600.0,340.8 L600.9,341.2 L602.8,342.2 L603.7,342.5 L605.3,343.2 L606.9,344.0 L608.2,344.5 L609.4,345.1 L609.9,345.1 L611.6,345.2 L611.9,345.3 L612.1,345.4 L612.6,345.4 L613.2,345.2 L613.8,344.9 L614.8,344.1 L615.5,343.2 L615.8,342.8 L616.2,342.4 L618.0,341.0 L619.7,339.9 L620.1,339.6 L621.0,339.0 L621.5,338.6 L622.8,337.7 L622.9,337.6 L623.0,337.4 L623.1,337.3 L623.0,337.2" class="water"/>
<path d="M566.9,249.3 L567.2,250.0 L567.9,251.0 L568.0,251.4 L568.3,251.8 L568.6,252.3 L568.9,252.9 L569.1,253.1 L569.2,253.6 L569.5,254.4 L569.6,254.6 L569.8,254.8 L570.6,255.7 L571.6,257.0 L573.1,258.9 L573.6,259.6 L573.9,260.1 L574.1,260.5 L574.4,261.1 L574.6,261.8 L574.7,262.6 L574.7,263.1 L574.7,263.6 L574.5,264.3 L574.5,264.7 L574.6,265.1 L574.7,265.8 L574.9,266.2 L575.3,267.0 L587.8,295.7 L587.8,296.0 L587.8,296.4 L587.5,297.2 L587.4,297.5 L587.3,297.7 L587.0,298.0 L586.6,298.5 L586.1,299.1 L586.0,299.2 L585.9,299.4 L585.8,299.6 L585.7,299.8 L585.7,299.9 L585.7,300.1 L585.8,300.2 L585.9,300.5 L586.3,301.4 L587.1,303.0 L588.5,305.9 L588.6,306.0 L588.8,307.9 L588.9,308.8 L588.9,309.3 L589.0,309.6 L589.1,309.9 L589.2,310.1 L589.4,310.3 L592.3,313.8 L592.5,314.1 L594.2,316.4 L595.5,318.3 L595.6,318.6 L596.0,319.3 L596.2,320.1 L596.7,321.4 L597.1,322.7 L597.3,323.5 L597.5,324.1 L597.7,324.6 L597.7,324.9 L597.7,325.1 L597.4,326.1 L597.1,327.1 L597.0,327.4 L596.8,327.8 L596.5,328.0 L594.8,328.7 L594.5,329.0 L594.4,329.1 L594.3,329.6 L594.3,331.0 L594.2,332.0 L594.2,332.8 L594.1,333.0 L594.0,333.1 L594.0,333.2 L594.0,333.8 L594.4,334.6 L594.5,334.8 L594.4,335.0 L594.3,335.1 L594.0,335.4 L593.9,335.5 L593.8,336.0 L593.7,336.1 L593.8,336.3 L593.8,336.3 L593.9,336.5 L594.0,336.6 L594.1,336.6 L594.3,336.6" class="estero"/>
<path d="M547.3,415.4 L547.7,415.6 L548.6,415.8 L549.8,415.7 L550.2,415.6 L550.4,415.6 L550.9,415.4 L551.3,415.2 L552.4,414.6 L553.3,413.8 L554.4,412.9 L555.0,412.4 L555.4,412.0 L555.6,411.9 L555.9,411.8 L556.3,411.7 L556.7,411.7 L556.9,411.7 L557.2,411.8 L557.4,412.1 L557.7,412.6 L558.3,414.2 L558.6,414.9 L559.0,416.8 L559.0,417.8 L559.2,418.4 L559.4,418.9 L560.0,419.9 L560.4,420.3 L561.2,421.1 L562.3,421.4 L564.0,422.1 L564.8,422.6 L565.1,422.8 L565.2,423.0 L565.8,424.0 L566.0,424.3 L566.0,424.6 L566.1,425.4 L566.0,425.9 L565.7,426.6 L565.5,427.4 L565.5,427.7 L565.5,428.2 L565.6,428.9 L565.9,429.9 L566.1,430.4 L566.2,430.8 L567.4,432.6 L568.2,433.5 L569.2,434.5 L569.5,434.7 L569.9,434.9 L570.3,434.9 L570.5,435.0 L570.7,434.9 L571.0,434.8 L572.2,433.8 L573.3,432.4 L574.0,431.2 L574.5,430.5 L574.6,430.4 L575.4,430.0 L575.8,429.8 L576.5,429.6 L577.7,429.1 L578.5,428.9 L579.5,428.4 L580.0,428.2 L580.3,427.9 L581.1,427.0 L581.2,426.7 L581.3,426.3 L581.4,425.8 L581.4,425.3 L581.2,424.6 L580.9,424.1 L579.8,423.1 L578.5,421.9 L578.3,421.8 L578.2,421.4 L578.1,421.0 L578.1,420.6 L578.2,420.2 L578.4,420.0 L578.8,419.6 L579.6,419.3 L582.2,418.7 L582.5,418.5 L582.6,418.5 L582.9,418.3 L583.3,417.5 L583.7,416.5 L583.8,415.5 L583.7,414.8 L583.6,414.1 L583.6,413.3 L583.6,412.9 L583.7,412.6 L583.9,412.3 L584.4,411.6 L584.9,411.2 L585.5,411.0 L586.3,410.8 L586.5,410.8 L586.5,410.7 L586.6,410.5 L586.8,410.0 L587.1,409.5 L588.2,407.9 L588.5,407.5 L589.4,406.7 L589.7,406.6 L590.1,406.3 L591.5,405.4 L591.7,405.2 L592.6,404.8 L593.6,404.5 L596.7,403.5 L600.7,402.1 L601.9,401.5 L603.2,401.0 L604.6,400.4 L606.4,399.5 L607.4,398.9" class="estero"/>
<path d="M525.7,412.8 L525.8,412.6 L526.1,410.6 L526.5,408.0 L526.7,405.9 L526.7,405.3 L526.8,404.9 L526.7,404.6 L526.7,404.4 L526.5,404.1 L526.2,403.5 L525.6,403.0 L524.9,402.7" class="estero"/>
<path d="M524.9,402.7 L524.7,402.7 L524.1,402.8 L522.9,403.0 L520.5,403.2 L519.0,403.2 L517.9,403.1 L517.2,403.0 L516.1,402.7 L514.7,402.5 L512.4,401.7 L511.9,401.6 L510.0,399.7 L508.3,398.9 L508.2,399.0" class="water"/>
<path d="M617.2,456.9 L615.0,456.6 L614.6,456.5 L613.7,456.3 L612.5,456.3 L611.3,456.1 L609.9,455.7 L609.4,455.6 L608.5,454.9 L607.7,454.3 L607.1,453.6 L606.5,452.8 L606.1,452.0 L605.3,450.6 L604.5,449.5 L603.2,447.7 L601.4,445.5 L600.5,444.3 L599.4,443.1 L598.7,442.0 L596.4,439.1 L596.1,438.6 L595.8,437.9 L594.5,436.0 L593.9,435.1 L593.1,433.8 L592.6,432.9 L591.9,431.5 L591.4,430.4 L590.3,428.1 L589.7,426.8 L589.4,425.3 L589.3,424.4 L588.9,422.3 L588.4,420.1 L588.0,418.5 L587.7,416.7 L587.5,415.4 L587.3,414.2 L587.1,413.6 L586.6,411.8 L586.5,411.6 L586.4,411.6 L586.0,411.6 L585.3,411.8 L584.9,412.1 L584.6,412.3 L584.4,412.6 L584.2,413.0 L584.1,413.3 L584.2,414.6 L584.4,415.5 L584.4,416.6 L584.2,417.4 L584.0,418.1 L583.8,418.5 L583.8,418.5 L583.7,418.5 L583.7,418.5 L583.7,418.5 L583.7,418.6 L583.7,418.6 L583.6,418.6 L583.6,418.6 L583.6,418.6 L583.6,418.6 L583.5,418.6 L583.5,418.6 L583.5,418.7 L583.5,418.7 L583.4,418.7 L583.4,418.7 L583.4,418.7 L583.4,418.7 L583.3,418.7 L583.3,418.7 L583.3,418.8 L583.3,418.8 L583.3,418.8 L583.2,418.8 L583.2,418.8 L583.2,418.8 L583.2,418.8 L583.1,418.8 L583.1,418.9 L582.9,418.9 L581.7,419.4 L580.0,420.0 L579.4,420.1 L579.2,420.2 L579.0,420.5 L578.9,420.7 L578.8,421.1 L578.9,421.4 L579.0,421.8 L579.3,422.1 L580.0,422.7 L581.4,423.9 L581.6,424.2 L581.7,424.5 L581.9,425.2 L581.9,426.1 L581.8,426.8 L581.5,427.5 L581.0,428.2 L580.5,428.7 L579.6,429.2 L577.0,430.2 L576.6,430.3 L575.9,430.5 L575.4,430.8 L574.6,431.4 L574.4,431.5 L574.1,431.8 L573.4,433.4 L573.0,434.1 L572.0,435.4 L571.7,435.7 L571.5,435.8 L571.3,436.0 L570.7,436.1 L570.3,436.2 L570.0,436.2 L569.7,436.1 L569.4,435.9 L568.2,434.8 L566.3,432.7 L565.7,431.9 L565.2,430.8 L565.0,430.3 L564.8,429.6 L564.6,428.9 L564.5,428.1 L564.5,427.4 L564.7,426.8 L564.8,425.2 L564.8,424.9 L564.8,424.7 L564.7,424.6 L564.6,424.5 L564.4,424.1 L562.2,422.7 L562.1,422.6 L562.1,422.6 L562.0,422.5 L561.9,422.4 L561.8,422.4 L561.7,422.3 L561.6,422.3 L561.6,422.2 L561.5,422.1 L561.4,422.1 L561.3,422.0 L561.2,422.0 L561.1,421.9 L561.0,421.8 L561.0,421.8 L560.9,421.7 L560.8,421.6 L560.7,421.6 L560.6,421.5 L560.5,421.5 L560.5,421.4 L560.4,421.3 L560.3,421.3 L560.2,421.2 L560.1,421.2 L560.0,421.1 L560.0,421.0 L559.9,421.0 L559.8,420.9 L559.3,420.6 L559.0,420.4 L558.8,420.1 L558.6,419.8 L558.2,418.6 L558.0,417.3 L557.6,415.1 L557.3,413.8 L557.2,413.6 L557.0,413.5 L556.8,413.4 L556.4,413.4 L556.2,413.4 L555.6,413.7 L554.6,414.1 L553.1,415.2 L551.3,416.3 L551.0,416.4 L550.5,416.6 L549.2,416.6 L548.5,416.7 L547.4,416.6 L547.3,416.6" class="estero"/>
<path d="M547.3,416.6 L547.2,416.7 L546.9,419.0 L546.7,419.8 L546.7,420.0 L546.5,420.2 L546.5,420.5 L546.4,420.8 L546.4,420.9 L545.8,421.8 L544.0,424.0 L542.3,426.1 L541.9,426.7 L541.4,427.8 L541.1,428.4 L541.1,428.8 L541.2,430.8 L541.3,431.1 L542.3,433.8 L542.1,435.3 L542.7,436.4 L543.1,437.4 L543.8,439.0 L544.4,440.5 L545.1,441.9 L546.0,443.6 L546.1,443.8 L546.3,444.0 L546.4,444.1 L546.5,444.2 L546.7,444.5 L547.0,445.1 L547.3,446.1 L547.5,446.6 L547.7,447.1 L548.0,447.6 L548.4,448.0 L548.7,448.5 L549.0,449.1 L549.5,449.8 L549.9,450.4 L550.9,451.9 L551.8,453.2 L553.5,455.4 L554.7,457.0 L554.9,457.2 L555.1,457.4 L555.3,457.6 L555.4,457.7 L555.5,458.0 L555.5,458.1 L555.6,458.3 L555.6,458.4 L555.8,460.1 L555.8,460.8 L555.7,461.3 L555.5,462.3 L555.3,463.6 L555.1,464.8 L554.0,466.3 L553.6,468.0 L553.4,469.1 L553.0,470.0 L552.9,470.1 L552.1,471.9 L551.6,472.9 L551.5,473.1 L551.4,473.2 L551.3,473.4 L551.2,473.4" class="estero"/>
<circle cx="632.9" cy="302.1" r="6.5" class="floodpt"/>
<circle cx="459.8" cy="395.3" r="6.8" class="floodpt"/>
<circle cx="455.2" cy="395.2" r="6.8" class="floodpt"/>
<circle cx="456.9" cy="401.2" r="6.2" class="floodpt"/>
<circle cx="459.5" cy="409.3" r="6.8" class="floodpt"/>
<circle cx="466.3" cy="426.6" r="7.4" class="floodpt"/>
<circle cx="450.6" cy="396.8" r="6.2" class="floodpt"/>
<circle cx="450.6" cy="396.8" r="6.2" class="floodpt"/>
<circle cx="450.6" cy="396.8" r="6.2" class="floodpt"/>
<circle cx="450.5" cy="396.9" r="6.2" class="floodpt"/>
<circle cx="463.8" cy="426.1" r="7.4" class="floodpt"/>
<circle cx="476.2" cy="446.6" r="6.8" class="floodpt"/>
<circle cx="475.9" cy="446.4" r="6.8" class="floodpt"/>
<circle cx="481.4" cy="454.8" r="6.8" class="floodpt"/>
<circle cx="481.5" cy="456.0" r="7.4" class="floodpt"/>
<circle cx="482.0" cy="458.4" r="8.0" class="floodpt"/>
<circle cx="460.0" cy="286.1" r="6.2" class="floodpt"/>
<circle cx="459.9" cy="286.1" r="6.8" class="floodpt"/>
<circle cx="459.9" cy="286.1" r="6.5" class="floodpt"/>
<circle cx="578.9" cy="484.5" r="6.2" class="floodpt"/>
<circle cx="578.8" cy="484.5" r="6.2" class="floodpt"/>
<circle cx="579.0" cy="484.6" r="6.8" class="floodpt"/>
<circle cx="490.1" cy="259.0" r="7.4" class="floodpt"/>
<circle cx="489.9" cy="258.9" r="7.1" class="floodpt"/>
<circle cx="487.3" cy="468.1" r="6.2" class="floodpt"/>
<circle cx="543.8" cy="239.1" r="7.4" class="floodpt"/>
<circle cx="543.5" cy="239.1" r="8.6" class="floodpt"/>
<circle cx="587.2" cy="485.1" r="6.8" class="floodpt"/>
<circle cx="668.9" cy="304.2" r="7.4" class="floodpt"/>
<circle cx="669.5" cy="304.3" r="6.2" class="floodpt"/>
<circle cx="491.6" cy="475.8" r="8.0" class="floodpt"/>
<circle cx="565.2" cy="235.0" r="6.8" class="floodpt"/>
<circle cx="565.5" cy="235.0" r="7.4" class="floodpt"/>
<circle cx="565.1" cy="234.9" r="6.8" class="floodpt"/>
<circle cx="460.5" cy="275.3" r="6.5" class="floodpt"/>
<circle cx="555.4" cy="363.7" r="18" class="halo"/>
<circle cx="555.4" cy="363.7" r="7" class="site"/>
<text x="567.4" y="351.7" class="legend" font-weight="800">Malacanang Palace</text>
<g transform="translate(28,622)"><rect x="0" y="0" width="390" height="76" rx="8" fill="white" stroke="#d7dde6"/><path d="M16 22 H56" class="water"/><text x="66" y="27" class="legend">Pasig River / major waterway</text><path d="M16 47 H56" class="estero"/><text x="66" y="52" class="legend">Estero / minor waterway</text><circle cx="242" cy="22" r="6" class="floodpt"/><text x="258" y="27" class="legend">MMDA flood-prone point</text><rect x="236" y="42" width="22" height="14" class="mgb"/><text x="266" y="53" class="legend">MGB moderate polygon</text></g>
</svg>